# xmcd
#
# Track frame offsets: 
#        182
#        18645
#        35735
#
# Disc length: 704 seconds
#
# Revision: 0
# Processed by: cddbd v1.5.1PL2 Copyright (c) Steve Scherf et al.
# Submitted via: ExactAudioCopy v0.95b2
#
DISCID=2102be03
DTITLE=Chaka Khan - Never Miss The Water (Promo)
DYEAR=1996
DGENRE=R&B
TTITLE0=01_Never Miss The Water (Radio Edit)
TTITLE1=02_Never Miss The Water (Stylus Remix Radio Edit)
TTITLE2=03_Never Miss The Water ((Radio Edit) No Rap)
EXTD=
EXTT0=
EXTT1=
EXTT2=
PLAYORDER=
